<?xml version="1.0" encoding="UTF-8"?>
<svg version="1.1" viewBox="0 0 2000 2000" xmlns="http://www.w3.org/2000/svg">
 <path d="m553.12 1840.8-43.778-24.606-41.555-26.231-39.96-28.283-38.036-29.742-36.739-31.628-34.351-32.956-32.889-34.546-30.501-35.874-28.874-37.167-27.083-38.162-24.993-39.324-23.068-40.784-20.648-41.352-19.32-42.479-16.602-43.213-14.944-43.746-12.524-44.315-10.568-45.015-8.1482-45.584-6.3255-45.819-3.9046-46.389-1.4541-46.198 0.36842-46.434 2.9536-46.706 5.4052-46.516 7.3929-46.455 10.01-45.968 12.296-46.074 14.912-45.586 17.23-44.933 19.681-44.741 22.164-43.791 24.647-42.841 26.1-40.93 28.151-39.35 29.903-37.606 31.82-35.564 33.109-33.949 34.563-32.038 36.016-30.127 37.47-28.216 38.459-26.435 40.078-24.228 40.604-22.578 41.924-20.204 42.616-18.258 43.605-16.477 43.998-14.365 45.154-12.288 45.412-9.7125 45.939-8.0626 46.497-5.6537 46.591-3.3743 46.984-1.2626 46.913 0.71907 47.173 3.2942 47.267 5.5727 46.897 7.7209 46.858 10.461 46.49 12.609 46.12 14.757 46.081 17.499 44.949 19.682 44.911 22.422 43.315 24.476 41.72 26.527 40.094 27.82 38.201 30.039 36.276 31.497 34.814 33.087 32.426 34.414 30.799 35.707 28.874 37.167 26.949 38.624 24.993 39.325 22.902 40.487 21.112 41.483 18.857 42.348 16.9 43.047 14.646 43.913 12.689 44.612 10.567 45.016 8.4463 45.418 6.0267 45.986 4.0389 45.926 1.6192 46.495-0.6678 46.601-2.8206 46.243-5.2398 46.812-7.5581 46.158-10.143 46.43-12.46 45.777-14.448 45.717-17.23 44.932-19.846 44.444-22.297 44.254-24.348 42.675-26.399 41.096-28.316 39.054-29.903 37.606-31.357 35.694-33.109 33.95-35.026 31.908-36.016 30.127-37.006 28.346-38.922 26.304-39.615 24.359-40.77 22.281-41.76 20.501-42.914 18.423-43.307 16.311-44.462 14.234-44.854 12.121-45.547 10.175-45.806 7.5998-46.332 5.95-46.89 3.541-46.984 1.2626-47.078-1.0162-47.173-3.2941-46.803-5.4427-47.062-8.0172-46.993-9.9994-46.49-12.609-46.285-15.054-45.617-17.368-45.413-19.812-44.446-22.292" fill="#162d50"/>
 <g transform="matrix(9.2361 5.1158 -5.1158 9.2361 847.29 -2734.1)" fill="#71c837" fill-rule="evenodd" stroke-linecap="round" stroke-linejoin="round" stroke-width=".44459">
  <path transform="matrix(.53558 -.85903 .55832 .34809 -98.209 338.69)" d="m132.82 384.61-0.99075 0.34213-3.6434 3.2745-2.1094 0.43985-2.6527-3.2256-3.0042 0.39099-3.2919 3.2745-0.28764 4.7896 0.0639 6.7446-1.2464 8.6506-1.2464 6.0603 1.0227 2.8835-1.8537 2.1504-2.5248 0.5376-1.1506 1.8083-0.032 0.43988 6.424 10.557 6.9673 9.4326 7.5745 8.2597 10.067 8.6506 10.291 6.3536 2.3331-1.955 4.1548-1.2218 4.826 0.43985 2.8125 0.14664 0.25568-4.4475-0.51135-1.7595-2.6846-2.8347-4.2187-6.5491-3.0682-5.7182 1.7898-8.8461-3.3878-8.0153-1.7578-6.6468-0.92685-8.7973-3.0682-4.7407-3.1641-7.5266-2.1413-2.1016-0.99075-6.7934-2.5888-2.6392-2.9723-1.564-1.9176-0.63538-0.76704-3.2256-1.5341-4.643 0.25568-5.425 0.92685-1.8572 2.5568-0.92859 1.8856-1.5151 0.15981-3.7144-0.8949-4.5941-1.8217-4.3497 1.1506-1.8084 2.2372-0.24435 3.1321-2.1016-0.0319-3.5678-2.1733-2.6881-2.0774 0.0978-1.5021-2.0527-0.60724-3.9587 0.54332-6.6957 2.8125-3.3722 2.9723-2.0038 4.6981 0.58646 2.6207 4.2032 0.95882 3.2745 0.0959 2.7858 1.0227 1.9061 1.7258 1.5639 1.3423 4.1543 0.47938 4.6919-1.4702 5.034-1.0866 3.9588 1.4062 1.8572 2.1094-3.0302 1.3743-3.3234 2.6846-1.6617 2.7166-0.0978 3.995 2.4926 2.6527 1.2707 2.9403-2.5414 3.9311-1.2707 3.0682 0.19549 0.9588 1.3196 1.8856-0.53763 3.196 0.0489 1.4702 1.4662 0.12784 2.7858 1.8537 0.43985 2.6527 2.2482 1.9496 1.6128 1.1186-2.3948-1.7578-3.1279-0.35156-1.9061 1.5341-1.8083-0.51135-2.7369-2.1413-1.1241-1.8217-1.7595 0.63919-0.97745 2.7166 0.8797 3.0682 2.7858 1.2145 2.3948 2.365 2.5414 2.1094-0.48877 1.63-3.2256 1.2464-6.0603 0.54332-9.286-1.2464-3.9588-0.57527-2.346 0.92685-3.8121-0.79901-7.9175-1.4062-1.8572-2.5568 2.4926-3.196 3.47-0.51137 2.7858-1.9176-0.0489-3.1321 2.1504-2.8444 1.8083 0.44743-4.0077 1.1825-3.7144 2.1413-2.4437-0.35156-3.861-1.1825-5.3272 0.9588-3.2256 3.6434-2.9324 3.8672 0.0978 4.5064 1.7106 3.4517 2.1015 2.2372 0.34213 0.63921-3.5189-1.7578-2.1504-0.63919-3.5678 1.7578-2.3948 1.6939-2.0038-0.86291-2.0527-2.8444 1.8572-1.8217-0.83084 0.0959-2.2971 3.1321-3.1279 1.598-3.1768-0.1598-3.4211 1.2464-4.1054-1.598-3.2745-2.0774-0.87973-0.41548 3.9588-1.598 2.2482-0.25568 4.4475-2.1413 1.4662 0.92683-13.88 0.83096-7.5754 1.3423-4.8874 2.1094-2.0527 2.429-3.7144-0.25568-2.688-1.63-3.861-1.2784-1.0263-0.57529-2.346-1.0866-2.1504-1.8856 0.58649-1.4382 0.0977-1.2464-4.9362-2.3331-1.564-2.7805 0.48874-2.1733 0.83084-0.76704-2.7858 0.28763-3.861-1.566 2.8347 0.44745 5.0829 0.76704 5.3761 0.19176 4.9851-1.9496 3.861-2.7486 3.0302-4.8579 2.5414-5.2095 2.1993-3.6434 2.9324-1.9496 1.955-1.7898 2.7369-3.2599-0.6842-3.7713 0.14661-4.6342 1.0264-4.826 3.1279-6.5198 5.1318-1.8537 3.1279-3.4197 5.9626-2.7166 4.5941-3.0362 5.9137-0.799 4.643 0.38351 2.8835 0.83096-4.0565 1.7578-3.3723 2.2692-3.1768 1.9496-2.8835 1.0547 1.5151-1.4062 2.6881-3.6754 5.8648-3.196 8.0153-2.1413 3.4211-2.0454 0.68423-1.2145 4.1543 0.38351 5.425-1.1506 9.8725 0.57529 4.8874 1.1825 7.2821 0.92685 8.7484-0.0639 4.9362-0.57527 5.0829-2.6846 6.2069 0.76704 6.3536 0.60725 3.9588 1.8217 3.3722 1.3423 4.1543"/>
  <path transform="matrix(.53558 -.85903 .55832 .34809 -98.209 338.69)" d="m144.58 355.24 1.9176 2.0038 1.0866 5.0829 1.0547 6.0603 1.3423 4.1542 0.38351 4.4964-1.566 0.24432-2.0455-3.8121 0.22373-5.034-0.38353-5.4738-2.0135-7.722"/>
  <path transform="matrix(.53558 -.85903 .55832 .34809 -98.209 338.69)" d="m150.11 378.89-1.2784 0.97748 0.4794 3.7144 0.86291 3.0302 2.4609 4.3497-0.12784-4.3986 0.83096-0.48874-0.31959-2.2971-2.9084-4.8874"/>
  <path transform="matrix(.53558 -.85903 .55832 .34809 -98.209 338.69)" d="m201.18 353.82-0.38353 2.6392-0.38351 4.5941-0.44745 4.9362-0.9588 2.2482-2.1413-5.034 1.0547-5.5227 1.1825-2.7858 2.0774-1.0752"/>
  <path transform="matrix(.53558 -.85903 .55832 .34809 -98.209 338.69)" d="m204.63 320.34-0.63921-3.5678-1.0866-4.1054 3.3238 1.9061 2.6527-2.2971 0.9588-3.2256-0.92685-5.2295-0.35155-3.861 1.3104-5.4739 2.5568 1.0264 0.83096 4.0565 0.31961 5.816 0.25568 5.5716-1.7258 3.9588-0.15979 2.1016 0.38351 4.4475-1.5341 4.4475-2.1094-0.53763-2.2372 1.2707-1.4382-2.4437-0.38353-3.861"/>
  <path transform="matrix(.53558 -.85903 .55832 .34809 -98.209 338.69)" d="m213.77 334.96-0.0639 5.8648 0.15979 2.4437 2.4929 3.3722 3.164 3.9588-0.83096-5.9626 0.99077-3.2256 3.0362-2.346 5.1136-4.3986 2.8125 1.1241 2.6846-2.6392 1.0227-7.1355 0.31961-6.7934-1.1186-6.6957 0.0319-6.4513-2.0774-5.425-2.6207-3.2256-2.5248-0.43985-1.1186-2.1504 1.1186-1.3685-1.3423-3.2256-2.6846-2.8346-1.3743 2.297-3.6115 0.97748-1.0227 3.6166 0.0319 5.0829 4.2826-1.9061 2.1094 0.48877-2.0454 3.6655-0.76704 5.2295 0.35156 3.861-0.44745 6.9401-0.76703 6.2558-4.1229 5.3272 0.12785 3.7633-1.3104 1.9549"/>
  <path transform="matrix(.53558 -.85903 .55832 .34809 -98.209 338.69)" d="m232.53 338.77-2.3331 2.9813-0.79901 2.688 0.3196 3.2257 3.7393 0.87973 3.5795-1.6128 0.19177-4.0565-1.8537-2.3948-1.7578-0.19553-1.0866-1.5151"/>
  <path transform="matrix(.53558 -.85903 .55832 .34809 -98.209 338.69)" d="m264.88 375.81-1.8856 4.1054-2.6207 2.2481-1.7258 2.9813v4.5453l-1.7578 1.3684-1.7258-2.1504-0.63921-1.955-1.7898-1.7594 0.60724 6.5002-1.63 0.63535-1.9176-4.5941-1.4702 2.1015-1.598 3.1768-2.397 2.3948-1.3743 4.252-1.4382 3.6655-0.44745 4.0076-1.5021-0.14661-1.2464 0.58649-2.6527 1.3196-2.4929-1.4174-0.0319-6.1092 1.566-1.8572 0.41548-4.0077 2.1094-2.0526 2.4609 0.78195 2.1413-2.3948-0.99077-4.8874-0.86291-2.0527 0.92685-2.8346 3.6434-2.9324 2.4929-6.6468 0.0959-4.3008 1.9815-3.2746 3.0042-3.9587 2.0774-7.1844 2.3011-3.5678-0.51137-3.7144-0.12782-4.3497-0.032-2.5903-1.2464-0.39099-0.51137 2.7858-2.4929-1.4174 0.60726 2.9324-0.19177 4.1054-0.70311 4.8874 0.19176 4.9851-2.5888-2.6392-1.9815 0.3421-0.89488-3.6655-0.28764-5.1806 2.0454-6.2558 0.22372-3.47-0.41548-6.9889-0.28764-5.2295 1.4062-5.2295 2.5248 2.0038 3.0042 5.1317 1.3743-2.2971-0.51137-2.7369-1.1825 0.1955-1.6619-3.9099 1.9496-0.92859-0.31961-3.2257 0.83096-3.079 0.0319-6.5002 0.25569-9.9702-1.0547-0.92859-1.598-0.29327-1.8537-2.3948-0.19176-2.4437-0.99075-3.861-2.0774-4.3986-1.8537-1.4173-2.4609-4.3498-1.3743-4.7896-0.51137-3.7144 1.3104-1.9061-1.7898-4.7407-1.8217-0.78198-2.1733-4.643-2.429-3.7633-1.63 1.6128-1.8537-1.4173-2.3331-4.4964-1.6619-0.92859-1.2145 2.1504-1.63-1.3196-2.8444-5.2784-1.5341 0.87974-1.7578 1.4173-1.5021-1.1241-3.4517-1.1241-2.4609-0.83084-2.7486-1.4662-1.9815-3.2256 1.2784 0.0489 2.5568 0.0489 0.86292-1.5151-1.2464-2.9324 0.83096-3.0791 0.92683-2.8835 2.5888 0.68425 2.397 1.173 1.0227 1.9061 3.0362-0.34212 2.3331-2.9813 1.9176 2.0038 2.8125 2.688 2.9403-2.5414 0.35155-3.2745-0.41548-2.4926 6.8714 8.3574 5.3054 7.4777 4.6662 7.722 5.2734 10.215 4.1229 9.6281 4.1548 11.925 4.1868 15.737 2.9084 16.519 1.1826 12.023 0.60724 13-0.15982 11.632-0.63922 11.388-1.4062 10.801-1.2784 7.5754-0.63919 0.87973"/>
  <path transform="matrix(.53558 -.85903 .55832 .34809 -98.209 338.69)" d="m244.77 357.78-1.4702-1.4662-0.9588 2.1993-1.2145 4.1543-1.2145 2.1504-1.8537 3.1279-0.44745 4.9851 0.79901 2.3948 0.95879-2.1993 0.47942-4.3986 0.83096-1.1241 0.38351 3.5189 0.22371 4.0076 0.54333 3.3234 1.5021-1.4662 0.19176-0.0489 0.19176-0.0489 0.19177-0.0977 0.15981-0.14664 0.31958-0.29324 0.28766-0.3421 0.25568-0.39099 0.19176-0.29324 0.0959-0.19549 0.0639-0.0978-0.0319-2.5414-0.76704-7.331-0.28764-3.2745 0.57529-4.1054"/>
  <path transform="matrix(.53558 -.85903 .55832 .34809 -98.209 338.69)" d="m262.19 389.45-2.0774 1.7106-1.8537 3.1279-1.598 0.24435-0.67116-1.564-0.92683 2.8347-1.2145 5.0829-3.0682 3.3234-0.60724-2.9324-0.83096-1.4662-3.7713 3.079-3.0362 3.3234-1.7898 0.78195-2.6207 2.8836-2.0774 0.0977-2.3011 1.0264-2.1413 4.0076-2.6207 5.816-2.6527 2.2971-5.3373 4.9362-4.3785 5.6204-3.1321 5.6693-3.1001 7.2333-1.2145 6.6957 1.1825 5.3272 3.8672 0.0489 2.5568 0.0978 1.7578 1.8083 5.1136-4.0565 4.5383-4.252 4.5064-4.7408 5.0816-6.1092 5.625-8.0153 4.5064-7.5754 3.7713-7.2822 3.4836-7.9175 2.9084-7.4776 2.6207-8.2108 1.5021-5.4738"/>
 </g>
</svg>
