<?xml version="1.0" encoding="UTF-8" standalone="no"?>
<!-- Created with Inkscape (http://www.inkscape.org/) -->

<svg
   xmlns:dc="http://purl.org/dc/elements/1.1/"
   xmlns:cc="http://creativecommons.org/ns#"
   xmlns:rdf="http://www.w3.org/1999/02/22-rdf-syntax-ns#"
   xmlns:svg="http://www.w3.org/2000/svg"
   xmlns="http://www.w3.org/2000/svg"
   xmlns:sodipodi="http://sodipodi.sourceforge.net/DTD/sodipodi-0.dtd"
   xmlns:inkscape="http://www.inkscape.org/namespaces/inkscape"
   version="1.1"
   id="svg926"
   xml:space="preserve"
   width="358.2038"
   height="96.30217"
   viewBox="0 0 358.2038 96.302172"
   sodipodi:docname="ZfSC_Logo4c.svg"
   inkscape:version="0.92.2 (5c3e80d, 2017-08-06)"><metadata
     id="metadata932"><rdf:RDF><cc:Work
         rdf:about=""><dc:format>image/svg+xml</dc:format><dc:type
           rdf:resource="http://purl.org/dc/dcmitype/StillImage" /><dc:title></dc:title></cc:Work></rdf:RDF></metadata><defs
     id="defs930" /><sodipodi:namedview
     pagecolor="#ffffff"
     bordercolor="#666666"
     borderopacity="1"
     objecttolerance="10"
     gridtolerance="10"
     guidetolerance="10"
     inkscape:pageopacity="0"
     inkscape:pageshadow="2"
     inkscape:window-width="1009"
     inkscape:window-height="782"
     id="namedview928"
     showgrid="false"
     fit-margin-top="0"
     fit-margin-left="0"
     fit-margin-right="0"
     fit-margin-bottom="0"
     inkscape:zoom="0.85272897"
     inkscape:cx="17.258163"
     inkscape:cy="86.081196"
     inkscape:window-x="0"
     inkscape:window-y="0"
     inkscape:window-maximized="0"
     inkscape:current-layer="g934" /><g
     id="g934"
     inkscape:groupmode="layer"
     inkscape:label="ink_ext_XXXXXX"
     transform="matrix(1.3333333,0,0,-1.3333333,-182.84924,182.92296)"><g
       id="g5549"><g
         transform="translate(-12.025804,95.922993)"
         id="g5439"><path
           inkscape:connector-curvature="0"
           id="path938-9"
           style="fill:#7559b2;fill-opacity:1;fill-rule:nonzero;stroke:none;stroke-width:0.09999999"
           d="m 323.57751,-10.802895 v -0.9679 h -0.967 l -1.802,0.2668 c -0.034,0.9011 -0.235,2.7030999 -0.568,3.4370999 -0.534,0.4007 -1.669,0.8007 -2.836,0.8007 -2.002,0 -3.137,-1.3679 -3.137,-2.9358999 0,-2.2359 1.568,-3.2707 3.871,-4.1719 3.003,-1.1679 6.407,-2.6359 6.407,-6.4738 0,-4.60507 -3.237,-7.0082 -8.476,-7.0082 -2.169,0 -4.672,0.467969 -6.808,1.46914 0.4,2.10195 0.668,4.23789 0.668,6.17305 l 2.669,-0.3 c 0.067,-1.60235 0.2,-2.97031 0.501,-4.0711 0.667,-0.56796 2.102,-1.13515 3.537,-1.13515 2.536,0 3.737,1.46797 3.737,3.63711 0,2.76992 -2.101,3.53789 -4.371,4.33905 -3.037,1.0668 -5.806,2.6699 -5.806,6.2399 0,4.2377999 3.604,6.2069999 7.341,6.2069999 1.936,0 4.505,-0.5008 6.274,-1.3352 -0.1,-0.9668 -0.234,-2.6699 -0.234,-4.1706999" /><path
           inkscape:connector-curvature="0"
           id="path940-4"
           style="fill:#7559b2;fill-opacity:1;fill-rule:nonzero;stroke:none;stroke-width:0.09999999"
           d="m 340.23051,-16.843895 h -1.168 l -1.535,0.368 v 0.734 c 0,0.8339 -0.1,1.6019 -0.301,2.2019 -0.533,0.334 -1.569,0.668 -2.502,0.668 -2.003,0 -3.705,-1.836 -3.705,-5.77306 0,-3.7711 1.169,-6.70781 4.438,-6.70781 1.202,0 2.536,0.53398 4.139,1.53476 l 0.767,-1.36797 c -1.134,-0.83398 -2.236,-1.66875 -2.936,-2.101951 -0.935,-0.400781 -1.902,-0.567969 -3.104,-0.567969 -4.539,0 -7.642,3.07109 -7.642,7.87617 0,5.43863 3.771,8.87583 8.176,8.87583 2.169,0 4.605,-0.7 5.74,-1.234 -0.2,-1.0348 -0.334,-3.1711 -0.367,-4.5059" /><path
           inkscape:connector-curvature="0"
           id="path942-8"
           style="fill:#7559b2;fill-opacity:1;fill-rule:nonzero;stroke:none;stroke-width:0.09999999"
           d="m 346.30351,-3.6618951 c 1.401,0 2.602,-1.2011 2.602,-2.6031 0,-1.368 -1.201,-2.5691 -2.602,-2.5691 -1.368,0 -2.569,1.2011 -2.569,2.5691 0,1.402 1.201,2.6031 2.569,2.6031 z m 2.169,-20.0562099 c 0.033,-0.5668 0.134,-1.30078 0.334,-1.93476 0.801,-0.36719 1.401,-0.50118 2.303,-0.70118 v -1.234762 c -1.369,0.0668 -3.205,0.133984 -4.439,0.133984 -1.135,0 -3.037,-0.1 -4.238,-0.167188 v 1.267966 c 0.6,0.13399 1.401,0.43399 1.702,0.70118 0.2,0.90078 0.334,1.50078 0.4,2.73593 v 6.30704 c 0,0.9008 -0.1,1.7359 -0.267,2.4359 -0.3,0.3012 -1.134,0.534 -2.269,0.634 l -0.167,1.002 c 2.035,0.3332 4.272,0.7 6.073,1.434 l 0.835,-0.5329 c -0.133,-0.7679 -0.267,-1.8691 -0.267,-2.8043 v -9.27691" /><path
           inkscape:connector-curvature="0"
           id="path944-8"
           style="fill:#7559b2;fill-opacity:1;fill-rule:nonzero;stroke:none;stroke-width:0.09999999"
           d="m 362.38851,-17.077095 c 0,2.4691 -0.768,4.2051 -2.437,4.2051 -1.735,0 -3.003,-1.8692 -3.203,-4.8059 z m 4.004,-7.94179 c -0.901,-0.70117 -2.737,-2.003126 -3.27,-2.303126 -1.068,-0.4 -1.969,-0.533984 -3.237,-0.533984 -4.272,0 -7.509,2.96992 -7.509,8.07617 0,5.17183 3.438,8.67583 7.976,8.67583 4.339,0 6.04,-3.036 6.04,-6.94106 l -1.135,-0.8 -8.543,-0.40078 c 0,-3.33711 1.335,-6.00703 4.473,-6.00703 1.334,0 2.369,0.40078 4.404,1.60195 l 0.801,-1.36797" /><path
           inkscape:connector-curvature="0"
           id="path946-9"
           style="fill:#7559b2;fill-opacity:1;fill-rule:nonzero;stroke:none;stroke-width:0.09999999"
           d="m 370.23151,-16.809895 c -0.035,1.034 -0.101,1.8687 -0.235,2.4359 -0.233,0.3 -1.034,0.5012 -2.035,0.634 l -0.134,0.968 c 1.936,0.334 3.238,0.834 4.94,1.6019 l 0.801,-0.4007 c 0,-0.434 0.099,-1.0672 0.233,-1.5352 l 0.233,-0.0668 c 0.501,0.500801 1.236,1.2348 1.703,1.568801 0.934,0.367099 1.902,0.499999 2.802,0.499999 3.772,0 5.24,-2.034799 5.24,-5.339099 v -7.407821 c 0.034,-0.63399 0.133,-1.167969 0.3,-1.701949 0.501,-0.33399 1.135,-0.56719 2.303,-0.76797 v -1.267972 c -1.201,0.0668 -2.971,0.133984 -4.139,0.133984 -1.168,0 -3.003,-0.06719 -4.204,-0.133984 v 1.334764 c 0.601,0.06719 1.135,0.26719 1.435,0.50118 0.2,0.90078 0.267,1.50078 0.334,2.66875 v 6.64102 c 0,1.9019 -0.735,2.8371 -2.369,2.8371 -1.201,0 -2.404,-0.568 -3.271,-1.168 v -9.07692 c 0.033,-0.63399 0.134,-1.16797 0.3,-1.70195 0.501,-0.33399 1.002,-0.56719 1.97,-0.76797 v -1.267972 c -1.202,0.0668 -2.67,0.133984 -3.838,0.133984 -1.168,0 -3.071,-0.06719 -4.238,-0.133984 v 1.201952 c 0.534,0.13281 1.167,0.3668 1.468,0.63399 0.2,0.90078 0.333,1.50078 0.401,2.66875 v 6.27422" /><path
           inkscape:connector-curvature="0"
           id="path948-7"
           style="fill:#7559b2;fill-opacity:1;fill-rule:nonzero;stroke:none;stroke-width:0.09999999"
           d="m 401.19851,-16.843895 h -1.168 l -1.535,0.368 v 0.734 c 0,0.8339 -0.099,1.6019 -0.3,2.2019 -0.534,0.334 -1.569,0.668 -2.502,0.668 -2.003,0 -3.705,-1.836 -3.705,-5.77306 0,-3.7711 1.168,-6.70781 4.438,-6.70781 1.202,0 2.536,0.53398 4.139,1.53476 l 0.767,-1.36797 c -1.135,-0.83398 -2.236,-1.66875 -2.936,-2.101951 -0.935,-0.400781 -1.903,-0.567969 -3.104,-0.567969 -4.539,0 -7.642,3.07109 -7.642,7.87617 0,5.43863 3.771,8.87583 8.175,8.87583 2.169,0 4.606,-0.7 5.741,-1.234 -0.201,-1.0348 -0.334,-3.1711 -0.368,-4.5059" /><path
           inkscape:connector-curvature="0"
           id="path950-7"
           style="fill:#7559b2;fill-opacity:1;fill-rule:nonzero;stroke:none;stroke-width:0.09999999"
           d="m 412.91151,-17.077095 c 0,2.4691 -0.767,4.2051 -2.436,4.2051 -1.736,0 -3.003,-1.8692 -3.203,-4.8059 z m 4.004,-7.94179 c -0.9,-0.70117 -2.736,-2.003126 -3.269,-2.303126 -1.069,-0.4 -1.97,-0.533984 -3.238,-0.533984 -4.271,0 -7.508,2.96992 -7.508,8.07617 0,5.17183 3.437,8.67583 7.975,8.67583 4.339,0 6.04,-3.036 6.04,-6.94106 l -1.135,-0.8 -8.542,-0.40078 c 0,-3.33711 1.334,-6.00703 4.472,-6.00703 1.334,0 2.369,0.40078 4.404,1.60195 l 0.801,-1.36797" /><path
           inkscape:connector-curvature="0"
           id="path952-1"
           style="fill:#7559b2;fill-opacity:1;fill-rule:nonzero;stroke:none;stroke-width:0.09999999"
           d="m 272.89231,29.302208 c 0,-0.916 0,-2.0035 0.0574,-2.6336 h -1.8316 l -2.9778,0.4004 c -0.114,1.6035 -0.4582,4.523 -0.9726,5.7258 -1.5457,0.6293 -3.6641,1.259 -6.4121,1.259 -6.3555,0 -10.9356,-5.8391 -10.9356,-14.9422 0,-8.5309 3.0352,-17.0035031 12.3098,-17.0035031 2.0602,0 4.2359,0.5148 4.9234,0.916 0.8586,1.373804 2.061,5.553503 2.5766,7.7285031 l 4.2937,-0.6297 c -0.3437,-2.2902001 -0.7453,-7.0418031 -0.7453,-9.67580315 -2.9187,-1.3742 -7.7859,-1.94609995 -11.7359,-1.94609995 -13.3969,0 -19.1215,8.645003 -19.1215,19.5797031 0,11.2215 8.1867,19.4082 19.1789,19.4082 3.95,0 8.2442,-0.4578 11.7942,-1.6027 -0.2297,-1.6031 -0.4016,-4.2942 -0.4016,-6.584" /><path
           inkscape:connector-curvature="0"
           id="path954-6"
           style="fill:#7559b2;fill-opacity:1;fill-rule:nonzero;stroke:none;stroke-width:0.09999999"
           d="m 283.65681,40.294408 c 2.4042,0 4.466,-2.0613 4.466,-4.4656 0,-2.3477 -2.0618,-4.4082 -4.466,-4.4082 -2.3473,0 -4.4083,2.0605 -4.4083,4.4082 0,2.4043 2.061,4.4656 4.4083,4.4656 z m 3.7218,-34.4082001 c 0.0567,-0.9731 0.2285,-2.231999 0.5723,-3.320303 1.3738,-0.6297 2.4043,-0.859 3.9504,-1.202 v -2.11870005 c -2.3481,0.1148 -5.4961,0.2289 -7.6145,0.2289 -1.9465,0 -5.2097,-0.1719 -7.2707,-0.286 V 1.3639049 c 1.0305,0.2289 2.4043,0.7442 2.9192,1.202 0.3437,1.546104 0.573,2.576103 0.6875,4.694103 V 18.080708 c 0,1.5461 -0.1719,2.977 -0.4578,4.1797 -0.5161,0.5152 -1.9465,0.916 -3.8938,1.0875 l -0.2859,1.718 c 3.4922,0.5719 7.3281,1.2019 10.4199,2.4613 l 1.4312,-0.916 c -0.2293,-1.3164 -0.4578,-3.2063 -0.4578,-4.8086 V 5.8862079" /><path
           inkscape:connector-curvature="0"
           id="path956-9"
           style="fill:#7559b2;fill-opacity:1;fill-rule:nonzero;stroke:none;stroke-width:0.09999999"
           d="m 312.74051,2.5088049 c -1.43,-0.9738 -3.664,-2.34760005 -5.094,-3.09180005 -1.203,-0.4011 -2.577,-0.62999995 -3.951,-0.62999995 -4.6946,0 -7.2712,2.11909995 -7.2712,6.183203 V 22.775608 h -3.2058 v 2.6911 c 2.4043,1.2019 4.9804,4.0644 6.4699,6.2402 l 4.5221,0.5148 c -0.686,-2.175 -0.916,-4.4082 -0.973,-5.8968 1.832,0.0578 4.293,0.2863 6.927,0.63 -0.172,-1.0304 -0.4,-3.3203 -0.458,-4.2941 h -6.469 V 6.9741079 c 0,-3.033999 1.431,-3.893003 3.263,-3.893003 1.604,0 3.264,0.743804 4.981,1.659804 l 1.259,-2.232104" /><path
           inkscape:connector-curvature="0"
           id="path958-6"
           style="fill:#7559b2;fill-opacity:1;fill-rule:nonzero;stroke:none;stroke-width:0.09999999"
           d="m 321.10051,40.294408 c 2.404,0 4.466,-2.0613 4.466,-4.4656 0,-2.3477 -2.062,-4.4082 -4.466,-4.4082 -2.348,0 -4.408,2.0605 -4.408,4.4082 0,2.4043 2.06,4.4656 4.408,4.4656 z m 3.721,-34.4082001 c 0.057,-0.9731 0.229,-2.231999 0.573,-3.320303 1.374,-0.6297 2.404,-0.859 3.95,-1.202 v -2.11870005 c -2.348,0.1148 -5.496,0.2289 -7.614,0.2289 -1.947,0 -5.21,-0.1719 -7.271,-0.286 V 1.3639049 c 1.03,0.2289 2.404,0.7442 2.919,1.202 0.344,1.546104 0.573,2.576103 0.688,4.694103 V 18.080708 c 0,1.5461 -0.172,2.977 -0.458,4.1797 -0.516,0.5152 -1.947,0.916 -3.894,1.0875 l -0.286,1.718 c 3.492,0.5719 7.328,1.2019 10.42,2.4613 l 1.431,-0.916 c -0.229,-1.3164 -0.458,-3.2063 -0.458,-4.8086 V 5.8862079" /><path
           inkscape:connector-curvature="0"
           id="path960-6"
           style="fill:#7559b2;fill-opacity:1;fill-rule:nonzero;stroke:none;stroke-width:0.09999999"
           d="m 334.32551,17.508508 h -1.774 c 0.286,2.6906 0.343,5.4386 0.4,7.9003 l 1.088,1.2598 h 20.782 v -2.5191 l -15,-21.4696031 h 8.817 c 0.687,1.603204 1.832,4.809003 2.348,7.099603 l 4.122,-0.63 c -0.401,-2.6336 -0.859,-6.583603 -1.031,-9.67540305 h -22.328 V 1.8792049 l 15.057,21.5257031 h -8.359 c -0.629,-1.7171 -0.973,-3.7211 -1.202,-5.3242 l -2.92,-0.5722" /><path
           inkscape:connector-curvature="0"
           id="path962-9"
           style="fill:#7559b2;fill-opacity:1;fill-rule:nonzero;stroke:none;stroke-width:0.09999999"
           d="m 375.31951,17.279508 c 0,4.2364 -1.318,7.2133 -4.18,7.2133 -2.977,0 -5.152,-3.2058 -5.496,-8.2441 z m 6.87,-13.6252991 c -1.546,-1.203204 -4.696,-3.43640405 -5.612,-3.95120405 -1.832,-0.6871 -3.377,-0.91599995 -5.552,-0.91599995 -7.329,0 -12.882,5.096104 -12.882,13.8554031 0,8.8735 5.897,14.8848 13.683,14.8848 7.443,0 10.363,-5.2098 10.363,-11.9082 l -1.948,-1.3742 -14.656,-0.6863 c 0,-5.7258001 2.291,-10.3054991 7.672,-10.3054991 2.29,0 4.065,0.6871 7.558,2.747999 l 1.374,-2.346799" /><path
           inkscape:connector-curvature="0"
           id="path964-3"
           style="fill:#7559b2;fill-opacity:1;fill-rule:nonzero;stroke:none;stroke-width:0.09999999"
           d="m 388.77451,17.737408 c -0.058,1.775 -0.172,3.2062 -0.401,4.1793 -0.401,0.5152 -1.775,0.8589 -3.492,1.0878 l -0.229,1.6602 c 3.32,0.5723 5.553,1.4313 8.473,2.7481 l 1.374,-0.6872 c 0,-0.7437 0.172,-1.8316 0.401,-2.6332 l 0.4,-0.1144 c 0.859,0.8586 2.119,2.118 2.92,2.6906 1.603,0.6301 3.264,0.8586 4.809,0.8586 6.469,0 8.989,-3.4922 8.989,-9.1602 V 5.6569079 c 0.057,-1.086699 0.228,-2.002699 0.514,-2.918803 0.86,-0.573 1.948,-0.9742 3.952,-1.3171 v -2.17580005 c -2.062,0.1148 -5.096,0.2289 -7.1,0.2289 -2.004,0 -5.152,-0.1141 -7.214,-0.2289 V 1.5350049 c 1.031,0.1149 1.947,0.4578 2.462,0.859 0.344,1.546104 0.458,2.576203 0.572,4.580103 V 18.367008 c 0,3.2637 -1.258,4.8665 -4.064,4.8665 -2.061,0 -4.122,-0.9731 -5.611,-2.004 V 5.6569079 c 0.058,-1.086699 0.229,-2.002699 0.515,-2.918803 0.86,-0.573 1.718,-0.9742 3.378,-1.3171 v -2.17580005 c -2.06,0.1148 -4.58,0.2289 -6.583,0.2289 -2.004,0 -5.268,-0.1141 -7.271,-0.2289 V 1.3061049 c 0.916,0.2289 2.003,0.6301 2.519,1.0879 0.343,1.546104 0.572,2.576203 0.687,4.580103 V 17.737408" /></g><path
         d="m 312.45178,86.094916 v -0.9679 h -0.967 l -1.802,0.2668 c -0.034,0.9011 -0.235,2.7031 -0.568,3.4371 -0.534,0.4007 -1.669,0.8007 -2.836,0.8007 -2.002,0 -3.137,-1.3679 -3.137,-2.9359 0,-2.2359 1.568,-3.2707 3.871,-4.1719 3.003,-1.1679 6.407,-2.6359 6.407,-6.4738 0,-4.60507 -3.237,-7.0082 -8.476,-7.0082 -2.169,0 -4.672,0.467969 -6.808,1.46914 0.4,2.10195 0.668,4.23789 0.668,6.17305 l 2.669,-0.3 c 0.067,-1.60235 0.2,-2.97031 0.501,-4.0711 0.667,-0.56796 2.102,-1.13515 3.537,-1.13515 2.536,0 3.737,1.46797 3.737,3.63711 0,2.76992 -2.101,3.53789 -4.371,4.33905 -3.037,1.0668 -5.806,2.6699 -5.806,6.2399 0,4.2378 3.604,6.207 7.341,6.207 1.936,0 4.505,-0.5008 6.274,-1.3352 -0.1,-0.9668 -0.234,-2.6699 -0.234,-4.1707"
         style="fill:#4eafd5;fill-opacity:1;fill-rule:nonzero;stroke:none;stroke-width:0.1"
         id="path938"
         inkscape:connector-curvature="0" /><path
         d="m 329.10478,80.053916 h -1.168 l -1.535,0.368 v 0.734 c 0,0.8339 -0.1,1.6019 -0.301,2.2019 -0.533,0.334 -1.569,0.668 -2.502,0.668 -2.003,0 -3.705,-1.836 -3.705,-5.77306 0,-3.7711 1.169,-6.70781 4.438,-6.70781 1.202,0 2.536,0.53398 4.139,1.53476 l 0.767,-1.36797 c -1.134,-0.83398 -2.236,-1.66875 -2.936,-2.101951 -0.935,-0.400781 -1.902,-0.567969 -3.104,-0.567969 -4.539,0 -7.642,3.07109 -7.642,7.87617 0,5.43863 3.771,8.87583 8.176,8.87583 2.169,0 4.605,-0.7 5.74,-1.234 -0.2,-1.0348 -0.334,-3.1711 -0.367,-4.5059"
         style="fill:#4eafd5;fill-opacity:1;fill-rule:nonzero;stroke:none;stroke-width:0.1"
         id="path940"
         inkscape:connector-curvature="0" /><path
         d="m 335.17778,93.235916 c 1.401,0 2.602,-1.2011 2.602,-2.6031 0,-1.368 -1.201,-2.5691 -2.602,-2.5691 -1.368,0 -2.569,1.2011 -2.569,2.5691 0,1.402 1.201,2.6031 2.569,2.6031 z m 2.169,-20.05621 c 0.033,-0.5668 0.134,-1.30078 0.334,-1.93476 0.801,-0.36719 1.401,-0.50118 2.303,-0.70118 v -1.234762 c -1.369,0.0668 -3.205,0.133984 -4.439,0.133984 -1.135,0 -3.037,-0.1 -4.238,-0.167188 v 1.267966 c 0.6,0.13399 1.401,0.43399 1.702,0.70118 0.2,0.90078 0.334,1.50078 0.4,2.73593 v 6.30704 c 0,0.9008 -0.1,1.7359 -0.267,2.4359 -0.3,0.3012 -1.134,0.534 -2.269,0.634 l -0.167,1.002 c 2.035,0.3332 4.272,0.7 6.073,1.434 l 0.835,-0.5329 c -0.133,-0.7679 -0.267,-1.8691 -0.267,-2.8043 v -9.27691"
         style="fill:#4eafd5;fill-opacity:1;fill-rule:nonzero;stroke:none;stroke-width:0.1"
         id="path942"
         inkscape:connector-curvature="0" /><path
         d="m 351.26278,79.820716 c 0,2.4691 -0.768,4.2051 -2.437,4.2051 -1.735,0 -3.003,-1.8692 -3.203,-4.8059 z m 4.004,-7.94179 c -0.901,-0.70117 -2.737,-2.003126 -3.27,-2.303126 -1.068,-0.4 -1.969,-0.533984 -3.237,-0.533984 -4.272,0 -7.509,2.96992 -7.509,8.07617 0,5.17183 3.438,8.67583 7.976,8.67583 4.339,0 6.04,-3.036 6.04,-6.94106 l -1.135,-0.8 -8.543,-0.40078 c 0,-3.33711 1.335,-6.00703 4.473,-6.00703 1.334,0 2.369,0.40078 4.404,1.60195 l 0.801,-1.36797"
         style="fill:#4eafd5;fill-opacity:1;fill-rule:nonzero;stroke:none;stroke-width:0.1"
         id="path944"
         inkscape:connector-curvature="0" /><path
         d="m 359.10578,80.087916 c -0.035,1.034 -0.101,1.8687 -0.235,2.4359 -0.233,0.3 -1.034,0.5012 -2.035,0.634 l -0.134,0.968 c 1.936,0.334 3.238,0.834 4.94,1.6019 l 0.801,-0.4007 c 0,-0.434 0.099,-1.0672 0.233,-1.5352 l 0.233,-0.0668 c 0.501,0.5008 1.236,1.2348 1.703,1.5688 0.934,0.3671 1.902,0.5 2.802,0.5 3.772,0 5.24,-2.0348 5.24,-5.3391 v -7.40782 c 0.034,-0.63399 0.133,-1.16797 0.3,-1.70195 0.501,-0.33399 1.135,-0.56719 2.303,-0.76797 v -1.267972 c -1.201,0.0668 -2.971,0.133984 -4.139,0.133984 -1.168,0 -3.003,-0.06719 -4.204,-0.133984 v 1.334762 c 0.601,0.06719 1.135,0.26719 1.435,0.50118 0.2,0.90078 0.267,1.50078 0.334,2.66875 v 6.64102 c 0,1.9019 -0.735,2.8371 -2.369,2.8371 -1.201,0 -2.404,-0.568 -3.271,-1.168 v -9.07692 c 0.033,-0.63399 0.134,-1.16797 0.3,-1.70195 0.501,-0.33399 1.002,-0.56719 1.97,-0.76797 v -1.267972 c -1.202,0.0668 -2.67,0.133984 -3.838,0.133984 -1.168,0 -3.071,-0.06719 -4.238,-0.133984 v 1.201952 c 0.534,0.13281 1.167,0.3668 1.468,0.63399 0.2,0.90078 0.333,1.50078 0.401,2.66875 v 6.27422"
         style="fill:#4eafd5;fill-opacity:1;fill-rule:nonzero;stroke:none;stroke-width:0.1"
         id="path946"
         inkscape:connector-curvature="0" /><path
         d="m 390.07278,80.053916 h -1.168 l -1.535,0.368 v 0.734 c 0,0.8339 -0.099,1.6019 -0.3,2.2019 -0.534,0.334 -1.569,0.668 -2.502,0.668 -2.003,0 -3.705,-1.836 -3.705,-5.77306 0,-3.7711 1.168,-6.70781 4.438,-6.70781 1.202,0 2.536,0.53398 4.139,1.53476 l 0.767,-1.36797 c -1.135,-0.83398 -2.236,-1.66875 -2.936,-2.101951 -0.935,-0.400781 -1.903,-0.567969 -3.104,-0.567969 -4.539,0 -7.642,3.07109 -7.642,7.87617 0,5.43863 3.771,8.87583 8.175,8.87583 2.169,0 4.606,-0.7 5.741,-1.234 -0.201,-1.0348 -0.334,-3.1711 -0.368,-4.5059"
         style="fill:#4eafd5;fill-opacity:1;fill-rule:nonzero;stroke:none;stroke-width:0.1"
         id="path948"
         inkscape:connector-curvature="0" /><path
         d="m 401.78578,79.820716 c 0,2.4691 -0.767,4.2051 -2.436,4.2051 -1.736,0 -3.003,-1.8692 -3.203,-4.8059 z m 4.004,-7.94179 c -0.9,-0.70117 -2.736,-2.003126 -3.269,-2.303126 -1.069,-0.4 -1.97,-0.533984 -3.238,-0.533984 -4.271,0 -7.508,2.96992 -7.508,8.07617 0,5.17183 3.437,8.67583 7.975,8.67583 4.339,0 6.04,-3.036 6.04,-6.94106 l -1.135,-0.8 -8.542,-0.40078 c 0,-3.33711 1.334,-6.00703 4.472,-6.00703 1.334,0 2.369,0.40078 4.404,1.60195 l 0.801,-1.36797"
         style="fill:#4eafd5;fill-opacity:1;fill-rule:nonzero;stroke:none;stroke-width:0.1"
         id="path950"
         inkscape:connector-curvature="0" /><path
         d="m 261.76658,126.20002 c 0,-0.916 0,-2.0035 0.0574,-2.6336 h -1.8316 l -2.9778,0.4004 c -0.114,1.6035 -0.4582,4.523 -0.9726,5.7258 -1.5457,0.6293 -3.6641,1.259 -6.4121,1.259 -6.3555,0 -10.9356,-5.8391 -10.9356,-14.9422 0,-8.5309 3.0352,-17.003504 12.3098,-17.003504 2.0602,0 4.2359,0.5148 4.9234,0.916 0.8586,1.373804 2.061,5.553504 2.5766,7.728504 l 4.2937,-0.6297 c -0.3437,-2.2902 -0.7453,-7.041804 -0.7453,-9.675804 -2.9187,-1.3742 -7.7859,-1.9461 -11.7359,-1.9461 -13.3969,0 -19.1215,8.645004 -19.1215,19.579704 0,11.2215 8.1867,19.4082 19.1789,19.4082 3.95,0 8.2442,-0.4578 11.7942,-1.6027 -0.2297,-1.6031 -0.4016,-4.2942 -0.4016,-6.584"
         style="fill:#4eafd5;fill-opacity:1;fill-rule:nonzero;stroke:none;stroke-width:0.1"
         id="path952"
         inkscape:connector-curvature="0" /><path
         d="m 272.53108,137.19222 c 2.4042,0 4.466,-2.0613 4.466,-4.4656 0,-2.3477 -2.0618,-4.4082 -4.466,-4.4082 -2.3473,0 -4.4083,2.0605 -4.4083,4.4082 0,2.4043 2.061,4.4656 4.4083,4.4656 z m 3.7218,-34.4082 c 0.0567,-0.9731 0.2285,-2.232 0.5723,-3.320304 1.3738,-0.6297 2.4043,-0.859 3.9504,-1.202 v -2.1187 c -2.3481,0.1148 -5.4961,0.2289 -7.6145,0.2289 -1.9465,0 -5.2097,-0.1719 -7.2707,-0.286 v 2.1758 c 1.0305,0.2289 2.4043,0.7442 2.9192,1.202 0.3437,1.546104 0.573,2.576104 0.6875,4.694104 v 10.8207 c 0,1.5461 -0.1719,2.977 -0.4578,4.1797 -0.5161,0.5152 -1.9465,0.916 -3.8938,1.0875 l -0.2859,1.718 c 3.4922,0.5719 7.3281,1.2019 10.4199,2.4613 l 1.4312,-0.916 c -0.2293,-1.3164 -0.4578,-3.2063 -0.4578,-4.8086 v -15.9164"
         style="fill:#4eafd5;fill-opacity:1;fill-rule:nonzero;stroke:none;stroke-width:0.1"
         id="path954"
         inkscape:connector-curvature="0" /><path
         d="m 301.61478,99.406616 c -1.43,-0.9738 -3.664,-2.3476 -5.094,-3.0918 -1.203,-0.4011 -2.577,-0.63 -3.951,-0.63 -4.6946,0 -7.2712,2.1191 -7.2712,6.183204 v 17.8054 h -3.2058 v 2.6911 c 2.4043,1.2019 4.9804,4.0644 6.4699,6.2402 l 4.5221,0.5148 c -0.686,-2.175 -0.916,-4.4082 -0.973,-5.8968 1.832,0.0578 4.293,0.2863 6.927,0.63 -0.172,-1.0304 -0.4,-3.3203 -0.458,-4.2941 h -6.469 v -15.6867 c 0,-3.034 1.431,-3.893004 3.263,-3.893004 1.604,0 3.264,0.743804 4.981,1.659804 l 1.259,-2.232104"
         style="fill:#4eafd5;fill-opacity:1;fill-rule:nonzero;stroke:none;stroke-width:0.1"
         id="path956"
         inkscape:connector-curvature="0" /><path
         d="m 309.97478,137.19222 c 2.404,0 4.466,-2.0613 4.466,-4.4656 0,-2.3477 -2.062,-4.4082 -4.466,-4.4082 -2.348,0 -4.408,2.0605 -4.408,4.4082 0,2.4043 2.06,4.4656 4.408,4.4656 z m 3.721,-34.4082 c 0.057,-0.9731 0.229,-2.232 0.573,-3.320304 1.374,-0.6297 2.404,-0.859 3.95,-1.202 v -2.1187 c -2.348,0.1148 -5.496,0.2289 -7.614,0.2289 -1.947,0 -5.21,-0.1719 -7.271,-0.286 v 2.1758 c 1.03,0.2289 2.404,0.7442 2.919,1.202 0.344,1.546104 0.573,2.576104 0.688,4.694104 v 10.8207 c 0,1.5461 -0.172,2.977 -0.458,4.1797 -0.516,0.5152 -1.947,0.916 -3.894,1.0875 l -0.286,1.718 c 3.492,0.5719 7.328,1.2019 10.42,2.4613 l 1.431,-0.916 c -0.229,-1.3164 -0.458,-3.2063 -0.458,-4.8086 v -15.9164"
         style="fill:#4eafd5;fill-opacity:1;fill-rule:nonzero;stroke:none;stroke-width:0.1"
         id="path958"
         inkscape:connector-curvature="0" /><path
         d="m 323.19978,114.40632 h -1.774 c 0.286,2.6906 0.343,5.4386 0.4,7.9003 l 1.088,1.2598 h 20.782 v -2.5191 l -15,-21.469604 h 8.817 c 0.687,1.603204 1.832,4.809004 2.348,7.099604 l 4.122,-0.63 c -0.401,-2.6336 -0.859,-6.583604 -1.031,-9.675404 h -22.328 v 2.4051 l 15.057,21.525704 h -8.359 c -0.629,-1.7171 -0.973,-3.7211 -1.202,-5.3242 l -2.92,-0.5722"
         style="fill:#4eafd5;fill-opacity:1;fill-rule:nonzero;stroke:none;stroke-width:0.1"
         id="path960"
         inkscape:connector-curvature="0" /><path
         d="m 364.19378,114.17732 c 0,4.2364 -1.318,7.2133 -4.18,7.2133 -2.977,0 -5.152,-3.2058 -5.496,-8.2441 z m 6.87,-13.6253 c -1.546,-1.203204 -4.696,-3.436404 -5.612,-3.951204 -1.832,-0.6871 -3.377,-0.916 -5.552,-0.916 -7.329,0 -12.882,5.096104 -12.882,13.855404 0,8.8735 5.897,14.8848 13.683,14.8848 7.443,0 10.363,-5.2098 10.363,-11.9082 l -1.948,-1.3742 -14.656,-0.6863 c 0,-5.7258 2.291,-10.3055 7.672,-10.3055 2.29,0 4.065,0.6871 7.558,2.748 l 1.374,-2.3468"
         style="fill:#4eafd5;fill-opacity:1;fill-rule:nonzero;stroke:none;stroke-width:0.1"
         id="path962"
         inkscape:connector-curvature="0" /><path
         d="m 377.64878,114.63522 c -0.058,1.775 -0.172,3.2062 -0.401,4.1793 -0.401,0.5152 -1.775,0.8589 -3.492,1.0878 l -0.229,1.6602 c 3.32,0.5723 5.553,1.4313 8.473,2.7481 l 1.374,-0.6872 c 0,-0.7437 0.172,-1.8316 0.401,-2.6332 l 0.4,-0.1144 c 0.859,0.8586 2.119,2.118 2.92,2.6906 1.603,0.6301 3.264,0.8586 4.809,0.8586 6.469,0 8.989,-3.4922 8.989,-9.1602 v -12.7101 c 0.057,-1.0867 0.228,-2.0027 0.514,-2.918804 0.86,-0.573 1.948,-0.9742 3.952,-1.3171 v -2.1758 c -2.062,0.1148 -5.096,0.2289 -7.1,0.2289 -2.004,0 -5.152,-0.1141 -7.214,-0.2289 v 2.2898 c 1.031,0.1149 1.947,0.4578 2.462,0.859 0.344,1.546104 0.458,2.576204 0.572,4.580104 v 11.3929 c 0,3.2637 -1.258,4.8665 -4.064,4.8665 -2.061,0 -4.122,-0.9731 -5.611,-2.004 v -15.5726 c 0.058,-1.0867 0.229,-2.0027 0.515,-2.918804 0.86,-0.573 1.718,-0.9742 3.378,-1.3171 v -2.1758 c -2.06,0.1148 -4.58,0.2289 -6.583,0.2289 -2.004,0 -5.268,-0.1141 -7.271,-0.2289 v 2.0609 c 0.916,0.2289 2.003,0.6301 2.519,1.0879 0.343,1.546104 0.572,2.576204 0.687,4.580104 v 10.7633"
         style="fill:#4eafd5;fill-opacity:1;fill-rule:nonzero;stroke:none;stroke-width:0.1"
         id="path964"
         inkscape:connector-curvature="0" /><path
         d="m 193.139,108.441 c -2.343,-0.716 -4.873,-1.342 -7.539,-1.83 -2.575,-0.471 -5.078,-0.782 -7.449,-0.947 -4.655,-0.325 -8.791,-0.084 -11.915,0.656 -5.578,-2.65 -9.285,-5.704 -10.095,-8.5661 -0.155,-0.5445 -0.039,-1.418 -0.022,-2.134 0.72,-2.6015 4.262,-4.4304 9.524,-5.3195 3.32,2.8184 9.876,5.5023 17.676,6.9277 0.519,0.0957 1.033,0.1824 1.542,0.2625 1.452,0.2289 2.868,0.4004 4.242,0.5176 3.109,1.2438 5.176,4.2698 4.89,7.6078 -0.088,1.022 -0.388,1.973 -0.854,2.825"
         style="fill:#7559b2;fill-opacity:1;fill-rule:nonzero;stroke:none;stroke-width:0.1"
         id="path986"
         inkscape:connector-curvature="0" /><path
         d="m 211.815,78.5688 c -1.427,-1.8961 -4.49,-3.8247 -8.597,-5.4754 v 0.0058 c -0.945,-0.3801 -1.944,-0.7433 -2.992,-1.0898 h 0.019 c -2.684,-0.8844 -5.681,-1.6465 -8.874,-2.2188 -3.254,-0.582 -6.386,-0.9097 -9.26,-1.0039 -0.46,-0.0168 -0.91,-0.0246 -1.356,-0.0289 -0.263,-0.0023 -0.523,-0.0023 -0.781,0.0016 -0.252,8e-4 -0.5,0.0027 -0.748,0.0105 -4.421,0.1039 -7.988,0.8254 -10.044,2.0754 5.857,-4.2062 13.184,-6.4277 20.934,-5.7637 9.457,0.8133 17.572,5.7485 22.727,12.884 0.9,1.2469 -0.325,1.5371 -1.028,0.6032"
         style="fill:#4eafd5;fill-opacity:1;fill-rule:nonzero;stroke:none;stroke-width:0.1"
         id="path1012"
         inkscape:connector-curvature="0" /><path
         d="m 216.559,107.869 0.212,-0.785 c 0.48,-2.643 -1.941,-5.579 -6.313,-8.2824 -1.725,-1.0641 -3.762,-2.0934 -6.038,-3.0543 -0.447,-0.1903 -0.904,-0.375 -1.369,-0.5586 -0.125,-0.0508 -0.253,-0.0992 -0.382,-0.1481 -0.518,-0.2008 -1.046,-0.3945 -1.586,-0.5886 l -0.109,-0.0422 c -0.591,-0.2082 -1.196,-0.4125 -1.81,-0.6133 -0.111,-0.036 -0.227,-0.0723 -0.342,-0.1074 -0.499,-0.1598 -1.005,-0.3168 -1.521,-0.4688 -0.151,-0.0445 -0.303,-0.0894 -0.455,-0.1348 -0.602,-0.1738 -1.209,-0.3453 -1.83,-0.5113 l -0.072,-0.0195 c -0.647,-0.1695 -1.302,-0.3328 -1.968,-0.4934 -0.168,-0.0394 -0.336,-0.0769 -0.506,-0.1187 -0.511,-0.1172 -1.025,-0.2336 -1.542,-0.3434 -0.192,-0.0422 -0.379,-0.0801 -0.569,-0.1207 -0.677,-0.141 -1.359,-0.2769 -2.049,-0.4023 -0.82,-0.152 -1.631,-0.284 -2.44,-0.4098 -2.332,-0.3613 -4.604,-0.6211 -6.791,-0.7793 -0.092,-0.007 -0.184,-0.016 -0.276,-0.0223 -0.36,-0.0234 -0.715,-0.0468 -1.069,-0.0664 -0.127,-0.0078 -0.257,-0.0148 -0.385,-0.0214 -0.333,-0.0176 -0.665,-0.0309 -0.994,-0.0426 -0.145,-0.0059 -0.287,-0.0102 -0.429,-0.0149 -0.316,-0.0105 -0.633,-0.0191 -0.944,-0.0261 -0.146,-0.002 -0.289,-8e-4 -0.433,-0.0032 -0.964,-0.0109 -1.902,0 -2.814,0.0317 -0.222,0.0066 -0.443,0.0133 -0.66,0.0222 -0.204,0.011 -0.406,0.0215 -0.608,0.0348 -0.229,0.0137 -0.457,0.0258 -0.684,0.041 -0.19,0.0137 -0.378,0.0297 -0.564,0.0438 -0.233,0.0203 -0.464,0.0394 -0.692,0.0613 -0.175,0.0164 -0.349,0.0363 -0.522,0.0547 -0.238,0.0258 -0.471,0.0531 -0.701,0.0824 -0.157,0.0176 -0.316,0.0375 -0.47,0.0594 -0.256,0.0332 -0.505,0.0719 -0.754,0.1105 -0.122,0.0196 -0.25,0.0371 -0.373,0.0571 -0.367,0.0648 -0.73,0.1281 -1.082,0.1992 -4.7,0.9457 -7.832,2.7012 -8.506,5.1316 0.015,-0.664 0.044,-1.3316 0.101,-2.0023 0.339,-3.9453 1.396,-7.6567 3.03,-11.0156 l 0.113,-0.2305 c 0,0 3.033,-4.741 8.467,-5.7735 5.703,-1.0843 14.53,-0.83 22.886,0.6309 7.892,1.384 14.866,3.7613 19.863,6.5176 4.23,2.3359 7.041,4.939 7.774,7.4422 0.094,0.4004 0.159,0.8304 0.198,1.3871 0.246,2.0863 0.288,4.2289 0.102,6.4031 -0.269,3.1311 -0.992,6.1131 -2.094,8.8901"
         style="fill:#4eafd5;fill-opacity:1;fill-rule:nonzero;stroke:none;stroke-width:0.1"
         id="path1014"
         inkscape:connector-curvature="0" /><path
         d="m 190.675,77.2262 c -2.633,-0.4594 -5.377,-0.7813 -8.077,-0.9727 -5.886,-0.4195 -11.574,-0.2203 -15.493,0.5223 -1.241,-1.2285 -0.853,-2.8633 -0.441,-3.602 0.291,-0.605 1.019,-1.2019 1.577,-1.705 0.284,-0.2165 0.572,-0.4227 0.859,-0.6282 1.977,-1.2004 5.343,-1.9129 9.521,-2.0597 0.123,2.0293 4.168,4.3851 9.674,5.6976 0.612,0.1449 1.239,0.282 1.886,0.4008 0.406,0.0727 0.807,0.1414 1.208,0.2004 1.853,0.6562 3.075,1.75 3.025,2.8926 -1.22,-0.2711 -2.466,-0.5246 -3.739,-0.7461"
         style="fill:#7559b2;fill-opacity:1;fill-rule:nonzero;stroke:none;stroke-width:0.1"
         id="path1016"
         inkscape:connector-curvature="0" /><path
         d="m 185.114,127.587 c -0.512,-0.046 -1.04,-0.105 -1.571,-0.179 l -0.067,-0.008 c -0.532,-0.075 -1.07,-0.159 -1.617,-0.263 -0.177,-0.034 -0.351,-0.071 -0.525,-0.107 l -0.127,-0.022 -0.015,-0.01 -0.201,-0.041 c -0.167,-0.036 -0.34,-0.07 -0.507,-0.106 -0.255,-0.058 -0.506,-0.12 -0.754,-0.181 l -0.093,-0.024 c -1.576,-0.401 -3.028,-0.891 -4.29,-1.437 -3.144,-1.357 -5.127,-3.052 -5.029,-4.554 l 0.02,-0.183 c 0.052,-0.297 0.191,-0.573 0.402,-0.826 3.41,1.403 7.453,2.602 11.862,3.426 0.233,0.046 0.466,0.081 0.698,0.122 0.483,0.084 0.961,0.163 1.434,0.24 1.494,0.43 2.515,1.37 2.429,2.368 -0.071,0.829 -0.89,1.487 -2.049,1.785"
         style="fill:#7559b2;fill-opacity:1;fill-rule:nonzero;stroke:none;stroke-width:0.1"
         id="path1018"
         inkscape:connector-curvature="0" /><path
         d="m 207.939,119.173 c -0.084,0.465 -0.171,0.849 -0.587,1.306 -6.98,6.56 -12.571,4.942 -12.571,4.942 0.084,-0.15 0.15,-0.307 0.181,-0.471 0.053,-0.286 0.021,-0.578 -0.089,-0.876 -0.288,-0.794 -1.124,-1.621 -2.362,-2.402 -2.091,-1.315 -5.342,-2.502 -9.089,-3.19 -5.955,-1.089 -11.188,-0.551 -12.683,1.164 -0.21,0.243 -0.347,0.51 -0.399,0.797 l -0.022,0.212 c -0.098,1.502 1.885,3.198 5.029,4.554 -5.643,-2.359 -10.406,-6.306 -13.78,-11.242 -0.371,-0.54 -0.717,-1.092 -1.053,-1.656 -0.265,-0.639 -0.357,-1.27 -0.244,-1.88 0.346,-1.901 2.553,-3.3 5.966,-4.111 4.713,-1.117 11.729,-1.108 19.364,0.293 7.581,1.389 14.106,3.842 18.125,6.539 2.961,1.985 4.564,4.101 4.214,6.021"
         style="fill:#4eafd5;fill-opacity:1;fill-rule:nonzero;stroke:none;stroke-width:0.1"
         id="path1020"
         inkscape:connector-curvature="0" /><path
         d="m 174.534,115.258 c -1.694,0 -3.336,-1.405 -3.681,-3.301 -0.374,-2.045 0.939,-4.141 2.809,-4.482 0.19,-0.035 0.377,-0.051 0.567,-0.051 1.723,0 3.359,1.398 3.697,3.242 0.383,2.096 -0.935,4.193 -2.851,4.543 -0.178,0.032 -0.36,0.049 -0.541,0.049"
         style="fill:#010d00;fill-opacity:1;fill-rule:nonzero;stroke:none;stroke-width:0.1"
         id="path1022"
         inkscape:connector-curvature="0" /><path
         d="m 202.325,93.3188 c -0.21,0 -0.422,-0.0172 -0.633,-0.0528 -2.381,-0.4012 -4.064,-3.1527 -3.589,-5.9496 0.423,-2.4996 2.547,-4.4215 4.727,-4.4215 0.203,0 0.405,0.0172 0.608,0.0516 2.438,0.4113 4.122,3.1629 3.662,5.8926 -0.435,2.5539 -2.553,4.4797 -4.775,4.4797"
         style="fill:#010d00;fill-opacity:1;fill-rule:nonzero;stroke:none;stroke-width:0.1"
         id="path1024"
         inkscape:connector-curvature="0" /><g
         style="fill:#000000;fill-opacity:1"
         id="g5352"><path
           inkscape:connector-curvature="0"
           id="path988"
           style="fill:#000000;fill-opacity:1;fill-rule:nonzero;stroke:none;stroke-width:0.1"
           d="m 214.666,70.8855 c 1.1,0.1875 2.205,-0.5949 2.392,-1.6984 0.181,-1.0734 -0.605,-2.1769 -1.705,-2.3641 -1.076,-0.1828 -2.178,0.6008 -2.36,1.6758 -0.186,1.1012 0.598,2.2055 1.673,2.3867" /><path
           inkscape:connector-curvature="0"
           id="path990"
           style="fill:#000000;fill-opacity:1;fill-rule:nonzero;stroke:none;stroke-width:0.1"
           d="m 155.776,127.355 c 1.101,0.188 2.205,-0.595 2.391,-1.698 0.183,-1.074 -0.602,-2.176 -1.705,-2.363 -1.073,-0.183 -2.178,0.6 -2.357,1.674 -0.188,1.103 0.596,2.206 1.671,2.387" /><path
           inkscape:connector-curvature="0"
           id="path992"
           style="fill:#000000;fill-opacity:1;fill-rule:nonzero;stroke:none;stroke-width:0.1"
           d="m 155.059,107.805 c 0.971,0.163 1.947,-0.528 2.112,-1.5 0.161,-0.95 -0.532,-1.924 -1.505,-2.09 -0.947,-0.159 -1.923,0.533 -2.084,1.483 -0.164,0.971 0.528,1.945 1.477,2.107" /><path
           inkscape:connector-curvature="0"
           id="path994"
           style="fill:#000000;fill-opacity:1;fill-rule:nonzero;stroke:none;stroke-width:0.1"
           d="m 246.0105,71.181816 c 0.972,0.1629 1.948,-0.5285 2.112,-1.5011 0.162,-0.95 -0.531,-1.9235 -1.505,-2.0899 -0.948,-0.1574 -1.924,0.5324 -2.083,1.4836 -0.164,0.9699 0.527,1.9453 1.476,2.1074" /><path
           inkscape:connector-curvature="0"
           id="path996"
           style="fill:#000000;fill-opacity:1;fill-rule:nonzero;stroke:none;stroke-width:0.1"
           d="m 204.153,135.47 c 0.973,0.163 1.948,-0.527 2.113,-1.501 0.16,-0.949 -0.532,-1.923 -1.505,-2.089 -0.949,-0.159 -1.925,0.532 -2.084,1.483 -0.165,0.971 0.528,1.946 1.476,2.107" /><path
           inkscape:connector-curvature="0"
           id="path998"
           style="fill:#000000;fill-opacity:1;fill-rule:nonzero;stroke:none;stroke-width:0.1"
           d="m 210.416,113.098 c 1.839,0.31 3.682,-0.999 3.995,-2.839 0.304,-1.795 -1.007,-3.641 -2.845,-3.952 -1.797,-0.304 -3.641,1.007 -3.945,2.802 -0.312,1.84 0.997,3.684 2.795,3.989" /><path
           inkscape:connector-curvature="0"
           id="path1000"
           style="fill:#000000;fill-opacity:1;fill-rule:nonzero;stroke:none;stroke-width:0.1"
           d="m 150.727,79.1715 c 1.321,0.2226 2.646,-0.7184 2.869,-2.0406 0.218,-1.2879 -0.723,-2.6102 -2.044,-2.8348 -1.289,-0.2191 -2.611,0.7219 -2.83,2.0113 -0.225,1.3196 0.716,2.6453 2.005,2.8641" /><path
           inkscape:connector-curvature="0"
           id="path1002"
           style="fill:#000000;fill-opacity:1;fill-rule:nonzero;stroke:none;stroke-width:0.1"
           d="m 199.201,102.875 c 1.272,0.215 2.549,-0.69 2.766,-1.963 0.211,-1.2432 -0.696,-2.5194 -1.971,-2.7358 -1.242,-0.2098 -2.519,0.6953 -2.728,1.9388 -0.217,1.276 0.691,2.551 1.933,2.76" /><path
           inkscape:connector-curvature="0"
           id="path1004"
           style="fill:#000000;fill-opacity:1;fill-rule:nonzero;stroke:none;stroke-width:0.1"
           d="m 230.595,85.1594 c 1.538,0.2609 3.081,-0.834 3.341,-2.3723 0.255,-1.5027 -0.841,-3.0437 -2.38,-3.3043 -1.502,-0.2543 -3.044,0.8399 -3.297,2.343 -0.262,1.5398 0.835,3.0805 2.336,3.3336" /><path
           inkscape:connector-curvature="0"
           id="path1006"
           style="fill:#000000;fill-opacity:1;fill-rule:nonzero;stroke:none;stroke-width:0.1"
           d="m 140.039,105.924 c 1.881,0.319 3.767,-1.019 4.085,-2.898 0.312,-1.837 -1.03,-3.7209 -2.91,-4.0401 -1.834,-0.3117 -3.719,1.0261 -4.03,2.8621 -0.319,1.883 1.022,3.766 2.855,4.076" /><path
           inkscape:connector-curvature="0"
           id="path1008"
           style="fill:#000000;fill-opacity:1;fill-rule:nonzero;stroke:none;stroke-width:0.1"
           d="m 220.976,132.459 c 1.518,0.257 3.039,-0.823 3.297,-2.341 0.252,-1.483 -0.83,-3.006 -2.349,-3.261 -1.482,-0.252 -3.004,0.829 -3.254,2.311 -0.257,1.52 0.824,3.041 2.306,3.291" /><path
           inkscape:connector-curvature="0"
           id="path1010"
           style="fill:#000000;fill-opacity:1;fill-rule:nonzero;stroke:none;stroke-width:0.1"
           d="m 163.322,99.9625 c -0.073,0 -0.146,-0.0078 -0.218,-0.0195 -1.099,-0.1848 -1.816,-1.8274 -1.523,-3.5465 0.268,-1.5746 1.349,-2.8242 2.386,-2.8242 0.072,0 0.142,0.0058 0.211,0.0175 1.127,0.1895 1.842,1.8274 1.557,3.5094 -0.273,1.6102 -1.352,2.8633 -2.413,2.8633" /><path
           inkscape:connector-curvature="0"
           id="path1026"
           style="fill:#000000;fill-opacity:1;fill-rule:nonzero;stroke:none;stroke-width:0.1"
           d="m 163.924,86.5316 c -0.126,0 -0.25,-0.0187 -0.369,-0.0546 -1.015,-0.3004 -1.501,-1.9067 -1.037,-3.4707 0.404,-1.3583 1.462,-2.3586 2.403,-2.3586 0.12,0 0.238,0.0179 0.355,0.0515 1.036,0.3082 1.527,1.916 1.071,3.4465 -0.413,1.382 -1.468,2.3859 -2.423,2.3859" /></g></g></g></svg>